<svg width="83" height="85" viewBox="0 0 83 85" fill="none" xmlns="http://www.w3.org/2000/svg">
<g clip-path="url(#clip0_5_1760)">
<path d="M44.3006 44.0271C44.3204 44.5113 44.4594 44.9693 44.7176 45.3815C44.9393 45.7414 45.5052 45.3979 45.2835 45.0413C45.0882 44.7239 44.979 44.3869 44.9658 44.0172C44.9459 43.5952 44.284 43.6083 44.3006 44.0271Z" fill="#46A358"/>
<path d="M52.8093 43.9843C52.7762 44.1675 52.7398 44.3474 52.7067 44.5307C52.6736 44.7041 52.7663 44.884 52.945 44.9298C53.1105 44.9723 53.3157 44.8676 53.3488 44.6942C53.3819 44.511 53.4183 44.3311 53.4514 44.1479C53.4845 43.9745 53.3918 43.7945 53.2131 43.7487C53.0476 43.7062 52.8424 43.8109 52.8093 43.9843Z" fill="#46A358"/>
<path d="M57.3401 44.6354C57.767 44.6256 57.7537 43.9713 57.3268 43.9811C56.8999 43.9909 56.9131 44.6452 57.3401 44.6354Z" fill="#46A358"/>
<path d="M32.4823 45.7936C32.9092 45.7838 32.896 45.1295 32.469 45.1393C32.0421 45.1491 32.0554 45.8034 32.4823 45.7936Z" fill="#46A358"/>
<path d="M44.5885 4.38719C42.0335 11.8368 40.6402 19.6398 40.488 27.5082C40.4119 31.4636 40.6469 35.4224 41.1929 39.3418C41.4445 41.1478 41.7622 42.9472 42.1461 44.7303C42.4472 46.124 42.6028 47.7174 43.6486 48.7807C44.0954 49.2354 44.7804 48.5255 44.337 48.074C43.2084 46.9256 43.0926 44.498 42.8014 42.9963C42.434 41.0987 42.1428 39.1848 41.9276 37.2611C41.5206 33.6229 41.3849 29.9587 41.5139 26.3009C41.7754 18.92 43.1555 11.6209 45.5516 4.62929C45.7567 4.03057 44.7904 3.79174 44.5885 4.38719Z" fill="#46A358"/>
<path d="M48.4408 4.52147C49.7778 11.9646 49.8109 19.5712 50.079 27.1059C50.2047 30.6459 50.4199 34.1956 50.347 37.7389C50.2709 41.4162 49.5461 44.8744 48.5698 48.4078C48.4011 49.0196 49.3641 49.2585 49.5329 48.6499C50.4496 45.3423 51.1777 42.0771 51.3167 38.6353C51.4723 34.7911 51.2108 30.9272 51.0751 27.0895C50.8038 19.4633 50.7475 11.7781 49.3939 4.24338C49.2814 3.62176 48.3282 3.90313 48.4408 4.52147Z" fill="#46A358"/>
<path d="M55.629 17.3104C56.0824 27.4951 56.4928 37.8042 53.9776 47.7796C53.822 48.3947 54.7851 48.6335 54.9407 48.0217C57.4757 37.9613 57.0819 27.5606 56.6219 17.2908C56.5921 16.6593 55.5993 16.6757 55.629 17.3104Z" fill="#46A358"/>
<path d="M52.8226 17.4608C51.416 19.0868 50.4761 20.9778 50.0624 23.0815C49.94 23.6999 50.903 23.9453 51.0255 23.3236C51.4061 21.3803 52.2368 19.6463 53.5374 18.1413C53.9511 17.6604 53.2396 16.9798 52.8226 17.4608Z" fill="#46A358"/>
<path d="M62.6055 23.7164C62.5823 31.0908 61.5829 38.3965 59.6236 45.5124C59.4548 46.1242 60.4179 46.363 60.5867 45.7545C62.5658 38.5568 63.5752 31.1562 63.5984 23.6968C63.5984 23.0654 62.6055 23.085 62.6055 23.7164Z" fill="#46A358"/>
<path d="M60.7191 21.5211C58.1509 24.4624 56.89 28.0841 55.9832 31.8106C55.8342 32.4257 56.7973 32.6678 56.9462 32.0527C57.8133 28.5029 58.9849 25.012 61.4372 22.2017C61.8509 21.724 61.1361 21.0402 60.7191 21.5211Z" fill="#46A358"/>
<path d="M36.7549 10.4171C38.5222 14.5329 39.8062 18.7991 40.6005 23.1995C40.713 23.8212 41.6629 23.5365 41.5537 22.9182C40.7594 18.5178 39.472 14.2515 37.708 10.1357C37.4598 9.56317 36.5067 9.83472 36.7549 10.4171Z" fill="#46A358"/>
<path d="M34.9148 10.7735C34.3952 17.0192 33.8855 23.3434 34.9379 29.5661C36.04 36.0571 38.7472 42.3911 40.8289 48.6236C41.0275 49.2224 41.9806 48.9443 41.782 48.3423C39.7665 42.2995 37.1619 36.1553 35.997 29.8867C34.8254 23.5756 35.3781 17.101 35.9076 10.7539C35.9606 10.1258 34.9677 10.1487 34.9148 10.7735Z" fill="#46A358"/>
<path d="M28.5969 25.8625C31.9097 28.9117 34.5938 32.4779 36.6059 36.4857C36.8906 37.0517 37.7345 36.5348 37.4532 35.972C35.4046 31.8922 32.6577 28.2574 29.2853 25.1526C28.8187 24.724 28.1303 25.4307 28.5969 25.8625Z" fill="#46A358"/>
<path d="M26.3233 27.1222C28.8882 34.6994 32.34 41.9364 36.6258 48.7087C36.9634 49.2453 37.8139 48.7349 37.473 48.1951C33.2302 41.4914 29.8148 34.3395 27.2764 26.8408C27.0745 26.2454 26.1214 26.5202 26.3233 27.1222Z" fill="#46A358"/>
<path d="M32.0686 46.7619C30.6058 44.1773 28.4612 42.0278 25.7938 40.6602C25.251 40.3821 24.7314 40.4541 25.7838 40.3494C26.1677 40.3102 26.5649 40.2938 26.9488 40.3004C28.1998 40.3134 29.3316 40.5359 30.4072 41.2066C31.6582 41.9853 32.7504 43.1042 33.869 44.0563C34.3522 44.4685 35.0405 43.7618 34.5574 43.3496C33.1409 42.139 31.7376 40.6275 30.0002 39.875C29.0305 39.453 27.9813 39.3287 26.9289 39.3254C26.2604 39.3221 24.8704 39.1978 24.3111 39.7605C23.219 40.8533 25.3106 41.4978 25.9625 41.8806C28.1998 43.1827 29.9604 45.0541 31.2214 47.2854C31.5325 47.8285 32.3797 47.3148 32.0686 46.7619Z" fill="#46A358"/>
<path d="M62.2812 38.7923C63.2509 36.6559 65.5046 35.9852 67.6492 35.5402C67.9636 35.4748 68.0894 35.0626 67.9305 34.8139C66.7656 32.9949 64.6442 32.8084 62.6551 32.9883C62.023 33.0439 62.0363 34.0254 62.675 33.9698C64.2801 33.8259 66.1169 33.816 67.0833 35.3276C67.1759 35.0855 67.2719 34.8434 67.3646 34.6013C64.9751 35.0953 62.483 35.9492 61.4141 38.3146C61.1526 38.8872 62.0197 39.3681 62.2812 38.7923Z" fill="#46A358"/>
<path d="M28.4314 24.9137C27.9946 25.483 27.5048 26.1929 26.78 26.4219C26.0651 26.6477 25.3006 26.3238 25.3569 25.4699C25.3999 24.8025 25.9791 24.315 26.5417 24.0369C27.197 23.713 28.9941 23.5592 28.5175 24.8025C28.2924 25.3946 29.2555 25.6269 29.4806 25.0446C29.9406 23.8439 28.8352 22.7936 27.6636 22.7707C26.4325 22.7478 24.9995 23.5559 24.5361 24.7108C24.1026 25.7807 24.556 27.1188 25.7607 27.4231C27.2334 27.7928 28.3487 26.6379 29.1496 25.5975C29.5302 25.0936 28.8187 24.4099 28.4314 24.9137Z" fill="#46A358"/>
<path d="M36.9965 9.68071C36.3776 9.79522 35.4807 10.1944 34.8618 9.8672C34.243 9.53676 34.3555 8.71557 34.7129 8.24117C35.0869 7.74715 35.676 7.5672 36.2717 7.73079C36.7549 7.86493 38.2607 9.11471 37.2116 9.54657C36.6291 9.78541 36.9038 10.7309 37.4962 10.4888C38.7373 9.97844 38.6943 8.55852 37.8967 7.64573C37.0924 6.72311 35.6528 6.37304 34.5772 7.04374C33.6373 7.63264 33.1144 8.91514 33.6241 9.94245C34.3455 11.4016 36.0334 10.852 37.2811 10.623C37.9066 10.5052 37.6187 9.56293 36.9965 9.68071Z" fill="#46A358"/>
<path d="M48.7916 3.6937C47.9311 3.9129 46.9283 4.17136 46.0414 3.9587C44.7937 3.66425 44.7473 2.25089 45.6244 1.51803C46.326 0.932397 47.4016 0.866963 48.2521 1.12215C48.7883 1.28247 49.4171 1.62927 49.5627 2.21162C49.7017 2.758 49.4336 3.29782 48.8776 3.43196C48.2587 3.58246 48.54 4.5247 49.1622 4.37421C50.6416 4.01432 50.9659 2.19199 50.0558 1.11888C49.0299 -0.0883685 46.9713 -0.294485 45.5913 0.372939C44.2939 1.0011 43.503 2.68929 44.3668 3.97833C45.3662 5.47349 47.62 5.00237 49.0729 4.6294C49.6918 4.47563 49.4105 3.53338 48.7916 3.6937Z" fill="#46A358"/>
<path d="M55.8706 13.3419C54.4442 13.09 52.8821 13.4989 52.2302 14.8959C51.7006 16.0279 52.2004 17.4969 53.4315 17.9222C54.6726 18.3508 56.5557 17.8208 57.2441 16.6823C57.9027 15.5863 57.4261 14.1958 56.3869 13.5414C55.8475 13.2012 55.3676 14.0616 55.9037 14.3986C56.5722 14.8174 56.7907 15.7695 56.2446 16.3813C55.7581 16.9276 54.7189 17.1599 54.014 17.0356C53.1072 16.8753 52.7564 15.9363 53.2098 15.1609C53.7062 14.3136 54.7288 14.1369 55.629 14.2939C56.2545 14.4052 56.4994 13.4531 55.8706 13.3419Z" fill="#46A358"/>
<path d="M63.5653 18.7662C62.3109 18.6844 60.5735 18.8611 60.2955 20.3791C60.0671 21.6224 61.4968 23.2648 62.5923 23.7064C65.7197 24.966 66.3883 18.6844 63.691 18.8513C63.0556 18.8905 63.0721 19.872 63.7109 19.8328C64.5879 19.7771 64.3728 21.8285 64.1742 22.2342C63.7076 23.1993 62.814 22.846 62.2249 22.2309C61.7715 21.7565 60.9574 20.9157 61.4273 20.2352C61.8807 19.5808 62.8934 19.7052 63.5851 19.7477C64.2238 19.7902 64.1974 18.8087 63.5653 18.7662Z" fill="#46A358"/>
<path d="M45.6376 6.17667C45.5383 6.50711 45.4357 6.83755 45.3364 7.16799C45.214 7.57368 45.856 7.73072 45.9785 7.3283C46.0778 6.99786 46.1804 6.66742 46.2797 6.33698C46.4021 5.9313 45.7601 5.77425 45.6376 6.17667Z" fill="#46A358"/>
<path d="M47.0508 6.23258C47.0541 6.45178 47.0607 6.66771 47.064 6.88692C47.0739 7.30896 47.7358 7.29588 47.7259 6.87383C47.7226 6.65463 47.716 6.43869 47.7127 6.21949C47.7061 5.79744 47.0441 5.81053 47.0508 6.23258Z" fill="#46A358"/>
<path d="M46.5808 10.1681C47.0077 10.1583 46.9945 9.50397 46.5676 9.51378C46.144 9.52032 46.1572 10.1747 46.5808 10.1681Z" fill="#46A358"/>
<path d="M44.605 10.5347C44.5753 10.8978 44.5455 11.2643 44.519 11.6274C44.5058 11.8041 44.6911 11.9513 44.8566 11.9481C45.0518 11.9448 45.1677 11.791 45.1809 11.6143C45.2107 11.2512 45.2405 10.8848 45.2669 10.5216C45.2802 10.3449 45.0948 10.1977 44.9294 10.201C44.7341 10.2043 44.6183 10.358 44.605 10.5347Z" fill="#46A358"/>
<path d="M46.1704 11.5946C46.1804 11.9938 46.187 12.3929 46.1969 12.7953C46.2068 13.2174 46.8687 13.2043 46.8588 12.7823C46.8489 12.3831 46.8423 11.984 46.8323 11.5816C46.8224 11.1595 46.1605 11.1726 46.1704 11.5946Z" fill="#46A358"/>
<path d="M47.342 9.27835C47.385 9.60551 47.4281 9.93268 47.4711 10.2566C47.4942 10.4332 47.6167 10.5805 47.8087 10.5772C47.9708 10.5739 48.1562 10.4202 48.133 10.2435C48.09 9.91632 48.0469 9.58915 48.0039 9.26526C47.9807 9.08859 47.8583 8.94136 47.6663 8.94463C47.5009 8.94791 47.3155 9.10167 47.342 9.27835Z" fill="#46A358"/>
<path d="M47.438 14.1859C47.4413 14.3692 47.4446 14.5491 47.4479 14.7323C47.4578 15.1544 48.1197 15.1413 48.1098 14.7192C48.1065 14.536 48.1032 14.3561 48.0999 14.1729C48.09 13.7508 47.4281 13.7639 47.438 14.1859Z" fill="#46A358"/>
<path d="M46.005 8.86951C45.9719 9.1934 46.0447 9.49767 46.1804 9.79212C46.2532 9.95244 46.4981 9.98515 46.6371 9.90009C46.8059 9.79867 46.8191 9.61218 46.7463 9.4486C46.6603 9.26211 46.647 9.05599 46.6669 8.85315C46.6834 8.67648 46.4915 8.52925 46.3293 8.53252C46.134 8.53907 46.0215 8.69284 46.005 8.86951Z" fill="#46A358"/>
<path d="M43.6949 14.0648C43.6287 14.4313 43.5625 14.7944 43.4963 15.1608C43.4202 15.5731 44.0623 15.7367 44.1384 15.3212C44.2046 14.9547 44.2708 14.5916 44.337 14.2251C44.4098 13.8129 43.771 13.6493 43.6949 14.0648Z" fill="#46A358"/>
<path d="M45.5185 16.3224C45.4887 16.5776 45.4556 16.8327 45.4258 17.0879C45.4059 17.2646 45.4754 17.438 45.6641 17.4871C45.8196 17.5263 46.0447 17.4282 46.0678 17.2515C46.0976 16.9963 46.1307 16.7411 46.1605 16.486C46.1804 16.3093 46.1109 16.1359 45.9222 16.0868C45.7667 16.0443 45.5416 16.1457 45.5185 16.3224Z" fill="#46A358"/>
<path d="M44.936 20.9779C44.9889 21.256 44.9558 21.5275 44.8665 21.7926C44.7308 22.1917 45.3728 22.352 45.5085 21.9529C45.6376 21.5734 45.6475 21.184 45.5714 20.7914C45.5383 20.618 45.3199 20.5231 45.161 20.5722C44.9724 20.6278 44.8996 20.8045 44.936 20.9779Z" fill="#46A358"/>
<path d="M42.9139 18.3377C42.8841 18.5929 42.851 18.848 42.8212 19.1032C42.8014 19.2799 42.8709 19.4533 43.0595 19.5024C43.215 19.5416 43.4401 19.4435 43.4633 19.2668C43.493 19.0116 43.5261 18.7564 43.5559 18.5012C43.5758 18.3246 43.5063 18.1512 43.3176 18.1021C43.1588 18.0628 42.9337 18.161 42.9139 18.3377Z" fill="#46A358"/>
<path d="M47.4214 18.8579C47.5009 19.2211 47.577 19.5842 47.6564 19.9441C47.7458 20.3564 48.3812 20.1666 48.2918 19.7576C48.2124 19.3945 48.1363 19.0313 48.0569 18.6714C47.9675 18.2592 47.3354 18.4457 47.4214 18.8579Z" fill="#46A358"/>
<path d="M47.855 23.6674C47.8616 24.0305 47.8715 24.3937 47.8781 24.7569C47.8881 25.1789 48.55 25.1658 48.5401 24.7438C48.5334 24.3806 48.5235 24.0175 48.5169 23.6543C48.5103 23.2323 47.8484 23.2453 47.855 23.6674Z" fill="#46A358"/>
<path d="M47.0739 28.4636C47.117 28.7187 47.1567 28.9707 47.1997 29.2259C47.2295 29.3993 47.4545 29.4909 47.6101 29.4451C47.7987 29.3894 47.8616 29.2128 47.8318 29.0394C47.7888 28.7842 47.7491 28.5323 47.7061 28.2771C47.6763 28.1037 47.4512 28.0121 47.2957 28.0579C47.107 28.1102 47.0441 28.2869 47.0739 28.4636Z" fill="#46A358"/>
<path d="M44.3734 26.0295C44.3767 26.2487 44.3833 26.4646 44.3866 26.6838C44.3965 27.1058 45.0584 27.0928 45.0485 26.6707C45.0452 26.4515 45.0386 26.2356 45.0353 26.0164C45.0287 25.5943 44.3668 25.6074 44.3734 26.0295Z" fill="#46A358"/>
<path d="M42.5498 23.2289C42.573 23.5004 42.5465 23.7556 42.4671 24.0174C42.3446 24.423 42.9867 24.5801 43.1091 24.1777C43.2051 23.8669 43.2382 23.5397 43.2117 23.2158C43.1753 22.8003 42.5134 22.8101 42.5498 23.2289Z" fill="#46A358"/>
<path d="M43.3805 30.7603C43.3474 31.0155 43.3176 31.2706 43.2845 31.5258C43.2614 31.7025 43.3342 31.8759 43.5228 31.925C43.6784 31.9642 43.9034 31.8661 43.9266 31.6894C43.9597 31.4342 43.9895 31.179 44.0226 30.9238C44.0457 30.7472 43.9729 30.5738 43.7843 30.5247C43.6254 30.4854 43.4037 30.5836 43.3805 30.7603Z" fill="#46A358"/>
<path d="M46.7562 34.4672C46.7992 34.6831 46.839 34.9023 46.882 35.1182C46.9151 35.2916 47.1335 35.3865 47.2924 35.3374C47.4777 35.2818 47.5472 35.1051 47.5141 34.9317C47.4711 34.7158 47.4314 34.4966 47.3883 34.2807C47.3552 34.1073 47.1368 34.0124 46.978 34.0615C46.7926 34.1171 46.7231 34.2938 46.7562 34.4672Z" fill="#46A358"/>
<path d="M44.9658 38.2131C45.0452 38.5763 45.1279 38.9362 45.2074 39.2993C45.3 39.7116 45.9322 39.5218 45.8428 39.1129C45.7634 38.7497 45.6806 38.3898 45.6012 38.0267C45.5085 37.6144 44.8731 37.8009 44.9658 38.2131Z" fill="#46A358"/>
<path d="M48.6592 40.5818C48.5897 40.837 48.5235 41.0922 48.454 41.3507C48.3448 41.7596 48.9868 41.9199 49.0961 41.511C49.1656 41.2558 49.2317 41.0006 49.3012 40.7421C49.4105 40.3332 48.7684 40.1729 48.6592 40.5818Z" fill="#46A358"/>
<path d="M48.1661 12.1869C48.2091 12.4421 48.2521 12.6941 48.2952 12.9492C48.3249 13.1226 48.55 13.2143 48.7055 13.1684C48.8942 13.1128 48.9571 12.9362 48.9273 12.7628C48.8842 12.5076 48.8412 12.2556 48.7982 12.0005C48.7684 11.8271 48.5434 11.7355 48.3878 11.7813C48.2025 11.8369 48.1363 12.0135 48.1661 12.1869Z" fill="#46A358"/>
<path d="M48.2455 16.679C48.2918 17.0061 48.3382 17.33 48.3845 17.6572C48.411 17.8306 48.5268 17.9811 48.7221 17.9778C48.8842 17.9746 49.0696 17.8208 49.0464 17.6441C49.0001 17.317 48.9537 16.9931 48.9074 16.6659C48.8809 16.4925 48.7651 16.342 48.5698 16.3453C48.4077 16.3485 48.219 16.5056 48.2455 16.679Z" fill="#46A358"/>
<path d="M53.2098 20.3107C53.1204 20.8243 53.0278 21.3347 52.9384 21.8484C52.8656 22.2606 53.5076 22.4242 53.5804 22.0087C53.6698 21.495 53.7625 20.9846 53.8518 20.471C53.9246 20.0588 53.2826 19.8952 53.2098 20.3107Z" fill="#46A358"/>
<path d="M54.4972 19.3881C54.5038 19.6433 54.5071 19.8985 54.5137 20.1504C54.5237 20.5724 55.1856 20.5594 55.1756 20.1373C55.169 19.8821 55.1657 19.6269 55.1591 19.375C55.1492 18.953 54.4906 18.966 54.4972 19.3881Z" fill="#46A358"/>
<path d="M54.1364 22.8854C54.0736 23.4318 54.014 23.9781 53.9511 24.5245C53.9048 24.9433 54.5667 24.9237 54.613 24.5114C54.6759 23.9651 54.7355 23.4187 54.7983 22.8723C54.8447 22.4568 54.1828 22.4732 54.1364 22.8854Z" fill="#46A358"/>
<path d="M52.4221 23.8439C52.2798 24.1383 52.1408 24.4328 51.9985 24.724C51.8165 25.1035 52.3956 25.4241 52.5777 25.0413C52.72 24.7469 52.859 24.4524 53.0013 24.1613C53.1833 23.7817 52.6041 23.4611 52.4221 23.8439Z" fill="#46A358"/>
<path d="M51.426 22.0937C51.3399 22.3162 51.2572 22.5354 51.1711 22.7579C51.1082 22.9247 51.2505 23.1145 51.4094 23.157C51.598 23.2061 51.747 23.085 51.8132 22.9215C51.8992 22.699 51.9819 22.4798 52.068 22.2573C52.1309 22.0904 51.9886 21.9007 51.8297 21.8582C51.6411 21.8091 51.4921 21.9269 51.426 22.0937Z" fill="#46A358"/>
<path d="M53.3157 26.3925C53.3024 26.6837 53.2925 26.9749 53.2793 27.266C53.2627 27.6881 53.9246 27.6717 53.9412 27.253C53.9544 26.9618 53.9643 26.6706 53.9776 26.3794C53.9941 25.9574 53.3322 25.9737 53.3157 26.3925Z" fill="#46A358"/>
<path d="M54.6726 28.1101C54.6593 28.3817 54.6461 28.6565 54.6329 28.9281C54.6229 29.1047 54.8017 29.2519 54.9704 29.2487C55.1591 29.2454 55.2848 29.0916 55.2948 28.915C55.308 28.6434 55.3213 28.3686 55.3345 28.097C55.3444 27.9204 55.1657 27.7731 54.9969 27.7764C54.8083 27.7797 54.6825 27.9335 54.6726 28.1101Z" fill="#46A358"/>
<path d="M54.1497 31.035C54.1199 31.2706 54.0868 31.5094 54.057 31.745C54.0339 31.9184 54.11 32.095 54.2953 32.1441C54.4542 32.1834 54.6759 32.0852 54.6991 31.9085C54.7288 31.673 54.7619 31.4342 54.7917 31.1986C54.8149 31.0252 54.7388 30.8485 54.5534 30.7995C54.3946 30.7569 54.1728 30.8583 54.1497 31.035Z" fill="#46A358"/>
<path d="M51.6808 29.0133C51.6477 29.2129 51.6146 29.4157 51.5815 29.6153C51.5517 29.7887 51.6378 29.9653 51.8198 30.0144C51.9819 30.0537 52.1938 29.9523 52.2235 29.7789C52.2566 29.5793 52.2897 29.3764 52.3228 29.1769C52.3526 29.0035 52.2666 28.8268 52.0845 28.7777C51.9224 28.7352 51.7106 28.8366 51.6808 29.0133Z" fill="#46A358"/>
<path d="M52.1574 34.2152C52.1607 34.3592 52.164 34.5064 52.1673 34.6504C52.1772 35.0724 52.8391 35.0593 52.8292 34.6373C52.8259 34.4933 52.8226 34.3461 52.8193 34.2022C52.8093 33.7801 52.1474 33.7932 52.1574 34.2152Z" fill="#46A358"/>
<path d="M54.2953 36.1357C54.2986 36.2796 54.3019 36.4268 54.3052 36.5708C54.3152 36.9928 54.9771 36.9797 54.9671 36.5577C54.9638 36.4137 54.9605 36.2665 54.9572 36.1226C54.9473 35.7005 54.2854 35.7136 54.2953 36.1357Z" fill="#46A358"/>
<path d="M52.389 40.101C52.4155 40.3562 52.389 40.5918 52.3063 40.8339C52.25 41.0007 52.3824 41.1905 52.5446 41.233C52.7299 41.2788 52.8888 41.1643 52.9483 40.9974C53.0476 40.7063 53.084 40.3955 53.0509 40.0912C53.0311 39.9145 52.902 39.7673 52.7134 39.7706C52.5446 39.7706 52.3692 39.9243 52.389 40.101Z" fill="#46A358"/>
<path d="M53.2065 18.6517C53.1204 18.8185 53.0311 18.9854 52.945 19.149C52.7498 19.5219 53.3256 19.8425 53.5242 19.4663C53.6102 19.2994 53.6996 19.1326 53.7856 18.969C53.9809 18.596 53.405 18.2754 53.2065 18.6517Z" fill="#46A358"/>
<path d="M36.04 12.4323C36.0996 12.7758 36.1625 13.1226 36.222 13.4662C36.2518 13.6396 36.4769 13.7312 36.6324 13.6854C36.8211 13.6297 36.8873 13.4531 36.8542 13.2797C36.7946 12.9361 36.7317 12.5893 36.6721 12.2458C36.6423 12.0724 36.4173 11.9808 36.2618 12.0266C36.0731 12.0822 36.0069 12.2589 36.04 12.4323Z" fill="#46A358"/>
<path d="M37.0262 14.595C37.1785 14.9549 37.334 15.318 37.4863 15.6779C37.5558 15.8415 37.7146 15.9527 37.8967 15.8971C38.0522 15.8513 38.1879 15.655 38.1184 15.4914C37.9662 15.1315 37.8106 14.7684 37.6584 14.4085C37.5889 14.2449 37.43 14.1337 37.248 14.1893C37.0924 14.2351 36.9567 14.4314 37.0262 14.595Z" fill="#46A358"/>
<path d="M36.1228 15.8021C36.0466 16.306 36.0533 16.7869 36.1426 17.2842C36.2154 17.6964 36.8475 17.51 36.778 17.0977C36.7118 16.7248 36.7118 16.3387 36.7681 15.9624C36.8244 15.5502 36.1823 15.3866 36.1228 15.8021Z" fill="#46A358"/>
<path d="M37.3804 17.6931C37.4929 18.0006 37.6021 18.3114 37.7146 18.619C37.8569 19.0149 38.4924 18.8316 38.3501 18.4325C38.2375 18.125 38.1283 17.8141 38.0158 17.5066C37.8735 17.1107 37.2381 17.294 37.3804 17.6931Z" fill="#46A358"/>
<path d="M35.8414 19.0019C35.8481 19.365 35.858 19.7282 35.8646 20.0913C35.8745 20.5134 36.5364 20.5003 36.5265 20.0783C36.5199 19.7151 36.51 19.3519 36.5033 18.9888C36.4967 18.5667 35.8348 18.5798 35.8414 19.0019Z" fill="#46A358"/>
<path d="M37.0825 20.2321C37.0891 20.5593 37.0958 20.8864 37.1024 21.2136C37.1123 21.6356 37.7742 21.6226 37.7643 21.2005C37.7577 20.8733 37.751 20.5462 37.7444 20.219C37.7345 19.797 37.0726 19.81 37.0825 20.2321Z" fill="#46A358"/>
<path d="M38.9325 20.8799C39.0649 21.2594 39.2006 21.6389 39.333 22.0184C39.472 22.4143 40.1074 22.2311 39.9684 21.8319C39.836 21.4524 39.7003 21.0729 39.568 20.6934C39.429 20.2975 38.7935 20.4807 38.9325 20.8799Z" fill="#46A358"/>
<path d="M39.6573 24.1383C39.697 24.3379 39.7401 24.5375 39.7798 24.737C39.8162 24.9104 40.0313 25.0053 40.1901 24.9562C40.3755 24.9006 40.4483 24.7239 40.4119 24.5505C40.3722 24.351 40.3291 24.1514 40.2894 23.9518C40.253 23.7784 40.0379 23.6835 39.8791 23.7326C39.697 23.785 39.6209 23.9649 39.6573 24.1383Z" fill="#46A358"/>
<path d="M37.8404 24.1743C37.9496 24.4818 38.029 24.7959 38.0654 25.1198C38.0853 25.2965 38.2144 25.4437 38.403 25.4404C38.5685 25.4372 38.7472 25.2834 38.7273 25.1067C38.6843 24.7239 38.6049 24.351 38.4758 23.9878C38.3335 23.5919 37.6981 23.7752 37.8404 24.1743Z" fill="#46A358"/>
<path d="M36.1426 22.8691C36.1492 23.1242 36.1525 23.3794 36.1592 23.6314C36.1691 24.0534 36.831 24.0403 36.8211 23.6183C36.8144 23.3631 36.8111 23.1079 36.8045 22.856C36.7946 22.4339 36.136 22.447 36.1426 22.8691Z" fill="#46A358"/>
<path d="M36.9402 26.7787C36.9667 27.1059 37.0296 27.4265 37.1388 27.734C37.2811 28.1299 37.9165 27.9467 37.7742 27.5475C37.6815 27.2924 37.622 27.0339 37.6021 26.7656C37.5723 26.3468 36.9104 26.3599 36.9402 26.7787Z" fill="#46A358"/>
<path d="M38.3898 29.563C38.4493 29.7626 38.5089 29.9622 38.5685 30.1585C38.6876 30.5609 39.3231 30.3777 39.2039 29.972C39.1443 29.7724 39.0848 29.5761 39.0252 29.3765C38.9061 28.9741 38.2706 29.1573 38.3898 29.563Z" fill="#46A358"/>
<path d="M39.1675 27.0371C39.2072 27.181 39.2469 27.325 39.2866 27.4722C39.3992 27.8779 40.0346 27.6914 39.9221 27.2857C39.8824 27.1418 39.8426 26.9978 39.8029 26.8506C39.6904 26.4449 39.055 26.6314 39.1675 27.0371Z" fill="#46A358"/>
<path d="M37.291 32.4779C37.3737 32.8018 37.4532 33.129 37.5359 33.4529C37.6385 33.8618 38.2739 33.6753 38.1713 33.2664C38.0886 32.9425 38.0092 32.6153 37.9264 32.2914C37.8238 31.8824 37.1884 32.0689 37.291 32.4779Z" fill="#46A358"/>
<path d="M38.9358 37.2415C38.9954 37.3854 39.0517 37.5294 39.1112 37.6733C39.1774 37.8369 39.3396 37.9481 39.5216 37.8925C39.6805 37.8467 39.8096 37.6504 39.7434 37.4868C39.6838 37.3429 39.6275 37.1989 39.568 37.055C39.5018 36.8914 39.3396 36.7802 39.1576 36.8358C38.9987 36.8816 38.8697 37.0779 38.9358 37.2415Z" fill="#46A358"/>
<path d="M60.4808 23.6836C60.3054 24.0336 60.1267 24.3804 59.9513 24.7305C59.7593 25.1068 60.3385 25.4274 60.5304 25.0479C60.7058 24.6978 60.8845 24.351 61.06 24.0009C61.2519 23.6247 60.6727 23.3073 60.4808 23.6836Z" fill="#46A358"/>
<path d="M61.4075 24.5047C61.3247 24.8352 61.2387 25.1623 61.1559 25.4928C61.05 25.9017 61.6921 26.0621 61.798 25.6531C61.8807 25.3227 61.9668 24.9955 62.0495 24.6651C62.1521 24.2594 61.51 24.0991 61.4075 24.5047Z" fill="#46A358"/>
<path d="M60.5933 27.6325C60.5106 27.9073 60.4278 28.1821 60.3418 28.457C60.2193 28.8627 60.8614 29.0197 60.9838 28.6173C61.0666 28.3425 61.1493 28.0676 61.2354 27.7928C61.3545 27.3904 60.7125 27.2301 60.5933 27.6325Z" fill="#46A358"/>
<path d="M60.0373 26.3076C59.9678 26.4352 59.895 26.566 59.8255 26.6936C59.6203 27.0633 60.1995 27.384 60.4047 27.011C60.4742 26.8834 60.547 26.7525 60.6165 26.6249C60.8217 26.2585 60.2425 25.9379 60.0373 26.3076Z" fill="#46A358"/>
<path d="M61.6722 26.4646C61.6424 26.7198 61.6126 26.975 61.5829 27.2302C61.563 27.4069 61.6325 27.5803 61.8211 27.6293C61.9767 27.6686 62.2017 27.5704 62.2249 27.3938C62.2547 27.1386 62.2845 26.8834 62.3143 26.6282C62.3341 26.4515 62.2646 26.2781 62.076 26.2291C61.9171 26.1898 61.6921 26.2879 61.6722 26.4646Z" fill="#46A358"/>
<path d="M58.5547 28.1625C58.4885 28.3719 58.3892 28.5616 58.27 28.7448C58.0384 29.0982 58.6175 29.4155 58.8492 29.0622C59.0014 28.8332 59.114 28.5845 59.1967 28.3228C59.2497 28.1559 59.1239 27.9662 58.9584 27.9236C58.7731 27.8811 58.6076 27.9923 58.5547 28.1625Z" fill="#46A358"/>
<path d="M58.5348 30.9761C58.3925 31.2084 58.323 31.4734 58.3362 31.745C58.3561 32.1638 59.018 32.1539 58.9981 31.7319C58.9915 31.5683 59.0246 31.4342 59.114 31.2968C59.3357 30.9336 58.7565 30.6162 58.5348 30.9761Z" fill="#46A358"/>
<path d="M60.259 30.2565C60.1929 30.4757 60.1267 30.6982 60.0638 30.9174C59.9446 31.3231 60.5867 31.4801 60.7058 31.0777C60.772 30.8585 60.8382 30.636 60.9011 30.4168C61.0202 30.0111 60.3782 29.8541 60.259 30.2565Z" fill="#46A358"/>
<path d="M59.713 33.4824C59.6435 33.7212 59.5773 33.9568 59.5078 34.1956C59.392 34.6013 60.034 34.7616 60.1498 34.3559C60.2193 34.1171 60.2855 33.8815 60.355 33.6427C60.4709 33.2403 59.8288 33.0799 59.713 33.4824Z" fill="#46A358"/>
<path d="M61.8112 28.8364C61.7947 28.9837 61.7814 29.1276 61.7649 29.2749C61.745 29.4515 61.9403 29.5987 62.1024 29.5955C62.301 29.5922 62.4069 29.4384 62.4268 29.2618C62.4433 29.1145 62.4566 28.9706 62.4731 28.8234C62.493 28.6467 62.2977 28.4995 62.1355 28.5027C61.937 28.5093 61.8311 28.6598 61.8112 28.8364Z" fill="#46A358"/>
<path d="M57.6545 35.3799C57.6214 35.4911 57.585 35.5991 57.5519 35.7103C57.4261 36.1127 58.0681 36.2731 58.1939 35.8706C58.227 35.7594 58.2634 35.6514 58.2965 35.5402C58.4223 35.1378 57.7802 34.9807 57.6545 35.3799Z" fill="#46A358"/>
<path d="M57.1216 38.7202C57.0521 38.9034 56.9793 39.0866 56.9098 39.2698C56.8469 39.4334 56.9893 39.6264 57.1481 39.669C57.3401 39.718 57.4857 39.597 57.5519 39.4334C57.6214 39.2502 57.6942 39.067 57.7637 38.8838C57.8265 38.7202 57.6842 38.5272 57.5254 38.4846C57.3334 38.4355 57.1878 38.5533 57.1216 38.7202Z" fill="#46A358"/>
<path d="M59.7262 37.3888C59.7295 37.4968 59.7295 37.608 59.7328 37.716C59.7428 38.138 60.4047 38.1249 60.3947 37.7029C60.3914 37.5949 60.3914 37.4837 60.3881 37.3757C60.3782 36.9537 59.7163 36.9668 59.7262 37.3888Z" fill="#46A358"/>
<path d="M58.4918 41.7237C58.4752 41.8709 58.462 42.0148 58.4454 42.1621C58.4256 42.3387 58.6208 42.486 58.783 42.4827C58.9816 42.4794 59.0875 42.3257 59.1073 42.149C59.1239 42.0018 59.1371 41.8578 59.1537 41.7106C59.1735 41.5339 58.9783 41.3867 58.8161 41.3899C58.6208 41.3932 58.5116 41.547 58.4918 41.7237Z" fill="#46A358"/>
<path d="M28.2593 28.0806C28.3156 28.2606 28.3752 28.4438 28.4314 28.6237C28.5572 29.0261 29.1926 28.8397 29.0669 28.4373C29.0106 28.2573 28.951 28.0741 28.8948 27.8942C28.7657 27.4917 28.1303 27.6782 28.2593 28.0806Z" fill="#46A358"/>
<path d="M28.9411 27.3381C29.1628 27.6097 29.3879 27.8812 29.6096 28.1495C29.7222 28.2869 29.9637 28.2574 30.0763 28.1397C30.212 27.999 30.1789 27.8158 30.0663 27.6784C29.8446 27.4068 29.6196 27.1353 29.3978 26.867C29.2853 26.7296 29.0437 26.759 28.9312 26.8768C28.7955 27.0142 28.8286 27.2007 28.9411 27.3381Z" fill="#46A358"/>
<path d="M30.212 29.6415C30.4039 29.9098 30.5959 30.1781 30.7845 30.4431C31.0294 30.7866 31.5953 30.4464 31.3504 30.1029C31.1585 29.8346 30.9665 29.5663 30.7779 29.3013C30.5297 28.9578 29.9637 29.2947 30.212 29.6415Z" fill="#46A358"/>
<path d="M29.3978 30.4233C29.5501 30.6752 29.7023 30.9271 29.8545 31.1791C30.073 31.5389 30.6389 31.1987 30.4205 30.8388C30.2682 30.5869 30.116 30.335 29.9637 30.083C29.742 29.7199 29.1794 30.0601 29.3978 30.4233Z" fill="#46A358"/>
<path d="M30.8805 33.1224C31.0724 33.4626 31.2677 33.8029 31.4596 34.1431C31.6681 34.5096 32.2341 34.1693 32.0256 33.8029C31.8336 33.4626 31.6384 33.1224 31.4464 32.7821C31.2346 32.4157 30.672 32.756 30.8805 33.1224Z" fill="#46A358"/>
<path d="M31.4663 32.131C31.5986 32.3273 31.731 32.5269 31.8634 32.7232C32.0984 33.0732 32.6643 32.733 32.4293 32.3829C32.297 32.1866 32.1646 31.987 32.0322 31.7907C31.7939 31.4407 31.228 31.7777 31.4663 32.131Z" fill="#46A358"/>
<path d="M31.7741 30.757C31.8833 30.9893 32.0686 31.1693 32.2903 31.3001C32.661 31.5128 32.982 30.9402 32.6114 30.7276C32.479 30.6523 32.3996 30.5509 32.3367 30.4168C32.2606 30.2565 32.0223 30.2237 31.88 30.3088C31.7178 30.4102 31.6979 30.5967 31.7741 30.757Z" fill="#46A358"/>
<path d="M29.2919 32.4745C29.3349 32.6544 29.3747 32.8344 29.4177 33.0176C29.4574 33.191 29.6659 33.2859 29.8281 33.2368C30.0101 33.1844 30.0895 33.0012 30.0498 32.8311C30.0068 32.6512 29.9671 32.4712 29.924 32.288C29.8843 32.1146 29.6758 32.0197 29.5137 32.0688C29.3316 32.1211 29.2522 32.3044 29.2919 32.4745Z" fill="#46A358"/>
<path d="M31.3802 35.8936C31.5325 36.2011 31.6847 36.5087 31.8336 36.8129C31.9131 36.9733 32.148 37.006 32.2903 36.9209C32.4558 36.8228 32.479 36.6297 32.3996 36.4694C32.2473 36.1619 32.0951 35.8543 31.9461 35.5501C31.8667 35.3898 31.6317 35.357 31.4894 35.4421C31.324 35.5435 31.3008 35.7366 31.3802 35.8936Z" fill="#46A358"/>
<path d="M33.8524 34.9679C33.9683 35.1838 34.0808 35.3997 34.1966 35.6156C34.3952 35.9886 34.9578 35.6451 34.7625 35.2754C34.6467 35.0595 34.5342 34.8435 34.4184 34.6276C34.2165 34.2546 33.6539 34.5949 33.8524 34.9679Z" fill="#46A358"/>
<path d="M34.607 39.6463C34.703 39.8263 34.7989 40.0062 34.8982 40.1829C35.1001 40.5558 35.6627 40.2123 35.4642 39.8426C35.3682 39.6627 35.2722 39.4827 35.1729 39.3061C34.971 38.9331 34.4051 39.2734 34.607 39.6463Z" fill="#46A358"/>
<path d="M35.7819 37.9875C35.8944 38.1675 36.0102 38.3474 36.1228 38.5273C36.3478 38.884 36.9137 38.5437 36.6887 38.1871C36.5762 38.0071 36.4603 37.8272 36.3478 37.6473C36.1194 37.2907 35.5535 37.6309 35.7819 37.9875Z" fill="#46A358"/>
<path d="M37.0991 43.0323C37.1917 43.1959 37.2877 43.3562 37.3804 43.5198C37.5922 43.8862 38.1548 43.5427 37.9463 43.1795C37.8536 43.0159 37.7577 42.8556 37.665 42.692C37.4532 42.3256 36.8873 42.6659 37.0991 43.0323Z" fill="#46A358"/>
<path d="M26.4259 41.0104C26.6476 41.1151 26.8727 41.2165 27.0944 41.3212C27.4783 41.5012 27.8026 40.9286 27.4154 40.7487C27.1937 40.644 26.9686 40.5426 26.7469 40.4379C26.3663 40.2612 26.042 40.8305 26.4259 41.0104Z" fill="#46A358"/>
<path d="M28.534 41.9624C28.7789 42.1358 29.0238 42.3124 29.2654 42.4858C29.4111 42.5905 29.6361 42.5022 29.7155 42.3582C29.8115 42.1881 29.7321 42.018 29.5865 41.9133C29.3416 41.7399 29.0967 41.5632 28.8551 41.3898C28.7094 41.2851 28.4844 41.3735 28.405 41.5174C28.3123 41.6875 28.3917 41.8577 28.534 41.9624Z" fill="#46A358"/>
<path d="M28.2097 40.9613C28.3785 40.9973 28.534 41.053 28.6863 41.138C29.0602 41.3409 29.3813 40.7683 29.0073 40.5655C28.8087 40.4575 28.5936 40.3757 28.3719 40.3266C27.9582 40.235 27.7927 40.8697 28.2097 40.9613Z" fill="#46A358"/>
<path d="M30.1491 42.3584C30.298 42.4631 30.4469 42.571 30.5959 42.6757C30.7415 42.7772 30.9665 42.6921 31.046 42.5481C31.1419 42.378 31.0625 42.2046 30.9169 42.1032C30.768 41.9985 30.619 41.8905 30.4701 41.7858C30.3245 41.6844 30.0994 41.7695 30.02 41.9134C29.9273 42.0836 30.0035 42.2537 30.1491 42.3584Z" fill="#46A358"/>
<path d="M30.1027 43.3366C30.1789 43.4446 30.255 43.5525 30.3311 43.6605C30.5727 44.004 31.1386 43.667 30.897 43.3202C30.8209 43.2123 30.7448 43.1043 30.6687 42.9963C30.4271 42.6495 29.8578 42.9898 30.1027 43.3366Z" fill="#46A358"/>
<path d="M31.602 43.8634C31.7509 43.9877 31.8998 44.1121 32.0521 44.2364C32.1877 44.3509 32.3896 44.3607 32.5187 44.2266C32.6378 44.1055 32.6478 43.8765 32.5088 43.7653C32.3598 43.6409 32.2109 43.5166 32.0587 43.3923C31.923 43.2778 31.7211 43.268 31.592 43.4021C31.4729 43.5199 31.463 43.7489 31.602 43.8634Z" fill="#46A358"/>
<path d="M65.7628 34.2251C65.4087 34.1597 65.0578 34.1662 64.707 34.2546C64.2933 34.3593 64.482 34.9874 64.8957 34.8827C65.1273 34.8238 65.3623 34.814 65.5973 34.8598C66.0176 34.9384 66.1798 34.3037 65.7628 34.2251Z" fill="#46A358"/>
<path d="M63.4792 34.9021C63.3534 34.997 63.2244 35.0886 63.0986 35.1835C62.9563 35.2882 62.8901 35.4714 62.9894 35.635C63.0754 35.7756 63.3005 35.8509 63.4461 35.7429C63.5719 35.648 63.7009 35.5564 63.8267 35.4616C63.969 35.3569 64.0352 35.1737 63.9359 35.0101C63.8499 34.8694 63.6248 34.7974 63.4792 34.9021Z" fill="#46A358"/>
<path d="M63.5851 34.5817C64.012 34.5719 63.9988 33.9175 63.5719 33.9274C63.1449 33.9372 63.1582 34.5915 63.5851 34.5817Z" fill="#46A358"/>
</g>
<g clip-path="url(#clip1_5_1760)">
<path d="M30.3859 47.6164C28.0446 53.6309 26.3971 59.9163 25.8568 66.3708C25.3966 71.8878 25.5367 77.8381 28.5582 82.6511C28.9051 83.2028 29.7589 82.6748 29.412 82.1197C26.3804 77.2931 26.3871 71.238 26.914 65.7243C27.501 59.5812 29.1285 53.5937 31.3564 47.8668C31.5898 47.261 30.6193 47.0173 30.3859 47.6164Z" fill="#727272"/>
<path d="M60.7884 46.6855C66.1145 50.7471 66.1212 58.1933 66.6948 64.3061C66.985 67.3895 67.3852 70.4831 67.5253 73.58C67.6553 76.4096 67.4219 79.4152 65.2141 81.4189C64.7338 81.8556 65.4575 82.5562 65.9344 82.1229C67.8788 80.3595 68.4791 77.8346 68.5458 75.2724C68.6425 71.6237 68.0322 67.9141 67.692 64.2891C67.095 57.9192 67.0217 50.1818 61.4788 45.9544C60.9718 45.5652 60.2748 46.2929 60.7884 46.6855Z" fill="#727272"/>
<path d="M28.7583 82.8542C31.5832 83.8865 34.4713 84.1437 37.4429 84.3976C40.7313 84.6785 44.0497 85.1016 47.3547 84.9831C50.7098 84.8647 54.0749 84.3806 57.41 84.0151C60.3282 83.6936 63.223 83.2874 65.9444 82.1095C66.5281 81.8557 66.2512 80.8775 65.6576 81.1348C62.8361 82.3566 59.8412 82.7357 56.8163 83.0606C53.668 83.3991 50.4997 83.856 47.3347 83.9677C44.2331 84.0794 41.1248 83.6969 38.0365 83.4363C34.9582 83.1723 31.9367 82.9422 29.0051 81.8726C28.3982 81.6458 28.158 82.6342 28.7583 82.8542Z" fill="#727272"/>
<path d="M30.626 48.1849C32.9539 49.1495 35.3318 50.0025 37.8431 50.3037C40.4545 50.6151 43.1158 50.1683 45.7439 50.236C47.2013 50.2732 48.512 50.4729 49.9828 50.2597C51.2501 50.0735 52.5174 49.8163 53.7481 49.4609C56.2994 48.723 58.7707 47.6941 61.2753 46.8073C61.879 46.5941 61.5988 45.6193 60.9885 45.8325C56.0859 47.5689 51.4902 49.5963 46.1975 49.2477C43.9963 49.1021 41.8052 49.4304 39.6107 49.4101C36.6558 49.3797 33.8143 48.4184 31.1062 47.2981C30.5226 47.0544 30.029 47.9378 30.626 48.1849Z" fill="#727272"/>
<path d="M0.663676 51.2413C6.2666 52.1348 11.4793 54.8257 15.3847 59.0193C19.1633 63.0775 21.2878 68.4252 25.4099 72.1924C25.8868 72.629 26.5839 71.8979 26.1036 71.4613C21.7347 67.4674 19.5502 61.6898 15.348 57.5368C11.4126 53.6478 6.3233 51.1194 0.910471 50.2564C0.276807 50.1548 0.0266764 51.1398 0.663676 51.2413Z" fill="#727272"/>
<path d="M1.53747 49.4236C6.62346 48.2458 12.0296 48.9464 16.5987 51.5424C20.2439 53.6138 23.2355 56.8868 27.5877 57.3336C28.2281 57.3979 28.2014 56.3825 27.5677 56.3182C22.6852 55.8173 19.1633 51.3529 14.761 49.5184C10.4688 47.7313 5.76301 47.4064 1.25399 48.4488C0.623656 48.5944 0.910473 49.5692 1.53747 49.4236Z" fill="#727272"/>
<path d="M0.723709 48.7433C0.340175 49.2781 0.0933795 49.9042 0.00666752 50.5575C-0.0300183 50.8316 0.0867093 51.099 0.370191 51.1735C0.606981 51.2378 0.940489 51.0787 0.977174 50.8045C1.05388 50.2224 1.25732 49.7113 1.5975 49.2341C1.75758 49.0107 1.61751 48.6688 1.40406 48.5436C1.14726 48.3981 0.880457 48.5233 0.723709 48.7433Z" fill="#727272"/>
<path d="M64.8105 49.6708C66.8783 45.6532 73.4483 45.1354 77.1569 46.9766C81.1757 48.9736 83.03 53.8103 81.3825 58.0411C79.9484 61.727 76.2631 63.531 73.2316 65.6566C71.9542 66.5535 70.5335 67.5622 69.6497 68.8856C68.7259 70.2699 68.8459 72.0299 67.9321 73.4109C67.5719 73.9558 68.4491 74.4432 68.8059 73.905C69.3829 73.0352 69.5496 72.1078 69.8064 71.1127C70.17 69.7216 70.897 68.828 71.9409 67.9176C73.7385 66.3505 75.8463 65.2166 77.7606 63.812C81.149 61.3242 83.5269 57.7906 82.8966 53.3635C82.3196 49.3324 79.1246 45.9985 75.1792 45.264C71.2038 44.5227 65.9644 45.2369 63.9334 49.18C63.6366 49.7554 64.5103 50.2496 64.8105 49.6708Z" fill="#727272"/>
<path d="M65.8244 52.2263C67.2084 49.4238 70.3601 48.6995 73.2216 48.9229C75.1292 49.0718 76.3065 49.8334 77.3037 51.4953C78.4076 53.3297 78.3542 54.8833 77.7306 56.8396C76.7501 59.9062 74.9825 61.3277 72.2644 62.7662C70.4835 63.7071 67.7654 64.9392 67.055 67.0207C66.8449 67.6401 67.8154 67.8838 68.0255 67.2712C68.6725 65.3758 71.8475 64.1438 73.4817 63.2671C74.8991 62.509 76.2265 61.673 77.1836 60.336C78.6977 58.224 79.9417 54.775 78.8445 52.2737C77.5038 49.214 75.4527 47.8567 72.1777 47.8804C69.2628 47.9007 66.3246 48.9568 64.9539 51.7322C64.6638 52.3143 65.5376 52.8085 65.8244 52.2263Z" fill="#727272"/>
<path d="M47.308 59.5709C44.3665 60.0143 41.8819 62.2346 41.585 65.3383C41.3016 68.2965 43.2693 72.1483 46.611 71.9215C49.6593 71.715 52.3673 68.7162 52.6475 65.7174C52.9576 62.4174 50.5197 59.5404 47.208 59.6859C46.5643 59.713 46.5843 60.7284 47.228 60.7013C50.1328 60.5727 52.1339 63.2669 51.5903 66.1033C51.15 68.3981 48.9689 70.7132 46.591 70.9095C43.6695 71.1498 42.1787 67.3962 42.6423 64.9593C43.0858 62.6238 45.0569 60.9315 47.328 60.5896C47.955 60.4915 47.945 59.4727 47.308 59.5709Z" fill="#727272"/>
<path d="M47.8817 60.0143C47.7049 57.8616 51.0366 54.5886 52.7042 57.0798C53.2211 57.8515 53.7214 59.2223 53.5079 60.1733C53.2778 61.1921 52.294 61.9537 51.5402 62.5798C51.0433 62.9928 51.7704 63.6934 52.2606 63.2839C53.4479 62.2989 54.6685 61.1177 54.5552 59.4287C54.4618 58.0478 53.708 56.2268 52.5208 55.4687C49.9861 53.8474 46.6777 57.5604 46.8811 60.038C46.9345 60.6844 47.935 60.6675 47.8817 60.0143Z" fill="#727272"/>
<path d="M52.5274 63.5106C53.7814 62.7559 57.0264 62.9555 56.6896 65.1353C56.3694 67.2135 53.718 67.2981 52.1472 67.3184C51.5035 67.3252 51.5236 68.3406 52.1672 68.3338C54.3717 68.3067 58.2271 67.6027 57.6768 64.438C57.2432 61.9537 53.7881 61.5678 52.0038 62.6442C51.4502 62.9792 51.9705 63.8457 52.5274 63.5106Z" fill="#727272"/>
<path d="M51.5202 68.5198C53.2745 69.3051 55.2488 71.6371 53.5813 73.519C51.6303 75.719 48.8088 73.5427 48.0884 71.4205C47.8783 70.8045 46.9178 71.0888 47.1279 71.7116C48.0618 74.4532 51.4268 76.8224 54.0215 74.4972C56.5428 72.2396 54.5385 68.7669 52.0071 67.6297C51.4235 67.3691 50.9333 68.2558 51.5202 68.5198Z" fill="#727272"/>
<path d="M46.6477 71.6746C46.7377 73.3805 46.2675 75.919 44.0063 75.6143C42.9791 75.4756 42.1887 74.538 42.2354 73.4752C42.2754 72.5208 42.9391 71.4072 43.3026 70.534C43.5494 69.9383 42.6789 69.4373 42.4288 70.0398C41.8985 71.3192 40.9781 72.8118 41.3182 74.2571C41.595 75.4282 42.5055 76.359 43.6728 76.5925C46.651 77.1916 47.7749 74.0743 47.6482 71.6509C47.6149 71.001 46.6143 71.018 46.6477 71.6746Z" fill="#727272"/>
<path d="M43.1659 69.2715C41.3016 70.0534 38.4234 69.8537 37.773 67.481C37.4896 66.4385 37.8064 65.2065 38.7702 64.6413C39.7074 64.093 40.918 64.2385 41.9386 64.3637C42.5689 64.4416 42.8224 63.4567 42.1854 63.3788C40.7713 63.2062 39.1671 63.0539 37.9498 63.9745C36.9393 64.7394 36.5291 66.0798 36.7225 67.3152C37.2228 70.5069 40.9013 71.3091 43.4493 70.2429C44.043 69.9992 43.7628 69.021 43.1659 69.2715Z" fill="#727272"/>
<path d="M42.5455 63.4936C40.8613 62.5798 39.9809 59.2222 41.4583 57.7702C43.3993 55.8646 45.7839 58.5656 46.9578 60.0277C47.3647 60.5321 48.0517 59.7976 47.6515 59.2966C46.1174 57.3877 42.799 54.4667 40.5312 57.2185C38.8636 59.2459 39.8608 63.189 42.0586 64.3838C42.6256 64.6918 43.1158 63.805 42.5455 63.4936Z" fill="#727272"/>
<path d="M44.153 70.9569C43.3626 71.7286 42.849 73.8169 44.063 74.4499C45.5171 75.2114 46.1608 72.6221 46.3542 71.688C46.4409 71.2615 45.7939 71.0956 45.7072 71.5221C45.6205 71.9452 45.5104 72.3615 45.357 72.7677C45.2803 72.9674 45.1969 73.1671 45.0969 73.3566C44.9435 73.6511 44.8534 73.8406 44.4999 73.8C43.5461 73.6815 44.1997 71.8504 44.6366 71.4273C44.9435 71.1227 44.4632 70.6556 44.153 70.9569Z" fill="#727272"/>
<path d="M48.452 71.0043C48.2819 71.9791 49.3691 72.744 50.1462 73.0926C50.9333 73.4446 52.0305 73.5631 52.7675 73.0114C53.4712 72.4834 53.3612 71.5255 53.0577 70.7944C52.6441 69.7993 51.7937 69.1292 50.8099 68.7772C50.403 68.6316 50.2429 69.2916 50.6464 69.4338C51.2401 69.647 51.7737 70.0058 52.1506 70.527C52.2806 70.7098 52.3807 70.9027 52.4641 71.1126C52.6575 71.6068 52.6875 71.8301 52.344 72.26C52.0505 72.6255 51.8971 72.7102 51.4502 72.7135C51.17 72.7135 50.8799 72.656 50.6164 72.5612C50.2129 72.4157 48.9956 71.7726 49.099 71.1769C49.1723 70.7437 48.5287 70.5744 48.452 71.0043Z" fill="#727272"/>
<path d="M52.3207 66.6246C53.1578 66.8378 53.9915 66.4723 54.6952 66.0221C55.2088 65.6938 55.8858 65.0947 55.8258 64.4009C55.7758 63.8221 55.2088 63.5479 54.7019 63.487C53.8281 63.3787 52.971 63.7612 52.2606 64.2418C51.9038 64.4821 52.2506 65.0643 52.6075 64.8206C52.9777 64.5667 53.3712 64.3433 53.8081 64.2316C54.2116 64.1267 55.3856 63.9575 55.0287 64.807C54.7152 65.5618 53.1944 66.1474 52.4841 65.968C52.0672 65.863 51.9038 66.5197 52.3207 66.6246Z" fill="#727272"/>
<path d="M49.209 60.3056C49.1557 59.7912 49.2624 59.2801 49.6292 58.901C49.896 58.6201 50.5431 58.2478 50.9233 58.4644C51.2601 58.6573 51.2368 59.4696 51.2368 59.8453C51.2334 60.3835 51.12 60.8946 50.9433 61.3989C50.7999 61.8084 51.4469 61.9709 51.5903 61.5647C51.8771 60.7456 51.9771 59.8859 51.8404 59.0228C51.747 58.4305 51.647 57.8416 50.99 57.7536C49.5359 57.5539 48.4053 58.9247 48.5487 60.3226C48.5854 60.749 49.2524 60.7389 49.209 60.3056Z" fill="#727272"/>
<path d="M43.0158 62.5697C42.4989 61.9097 42.0553 60.7116 42.2287 59.862C42.3321 59.3475 42.4522 59.1986 42.9791 59.1445C43.506 59.0903 43.6361 59.2494 44.0163 59.5608C44.4032 59.8755 44.78 60.2005 45.1636 60.5186C45.4937 60.7928 45.9573 60.3088 45.6238 60.0312C44.6833 59.246 43.1725 57.4352 41.9752 58.8128C41.0481 59.8823 41.6718 61.9402 42.4455 62.9251C42.709 63.2602 43.2826 62.9116 43.0158 62.5697Z" fill="#727272"/>
<path d="M41.8185 65.2065C40.5178 64.6785 38.8203 65.8529 39.0204 67.3354C39.2071 68.7401 41.4383 69.2613 42.4422 68.4693C42.7757 68.2053 42.4322 67.6231 42.0953 67.8905C41.5484 68.3237 40.1876 68.2087 39.7874 67.5622C39.2005 66.6246 40.6312 65.4434 41.4983 65.7988C41.8885 65.9579 42.2154 65.3689 41.8185 65.2065Z" fill="#727272"/>
</g>
<defs>
<clipPath id="clip0_5_1760">
<rect width="44" height="49" fill="white" transform="translate(24)"/>
</clipPath>
<clipPath id="clip1_5_1760">
<rect width="83" height="40" fill="white" transform="translate(0 45)"/>
</clipPath>
</defs>
</svg>
